{"title":"Krishnashtami 2016 Movies DVDScr XviD AAC New +Sample ~ ☻rDX☻","uid":13632871,"size":740446682,"categoryP":"video","categoryS":"movies","magnet":"?xt=urn:btih:5d8561423041c7b8d58b0f13c4b0c8ffc1ec8d3c&amp;dn=Krishnashtami+2016+Movies+DVDScr+XviD+AAC+New+%2BSample+%7E+%E2%98%BBrDX%E2%98%BB&amp;tr=udp%3A%2F%2Ftracker.leechers-paradise.org%3A6969&amp;tr=udp%3A%2F%2Fzer0day.ch%3A1337&amp;tr=udp%3A%2F%2Fopen.demonii.com%3A1337&amp;tr=udp%3A%2F%2Ftracker.coppersurfer.tk%3A6969&amp;tr=udp%3A%2F%2Fexodus.desync.com%3A6969","seeders":1,"leechers":0,"uploader":"basicssom","files":2,"time":1456042981,"description":"----------------------------------------------------------------\r\nKrishnashtami 2016 Telugu Movies DVDScr XviD AAC New Source with Sample ~ ☻rDX☻\r\n\r\nSCREEN SHOTS &amp; POSTER:\r\n  \nhttp://mobileshosting.com/2016/2/shoes/index.htm  \nhttp://mobileshosting.com/2016/2/shoes/1.html  \nhttp://mobileshosting.com/2016/2/shoes/2.html  \nhttp://mobileshosting.com/2016/2/shoes/3.html  \nhttp://mobileshosting.com/2016/2/shoes/4.html  \nhttp://mobileshosting.com/2016/2/shoes/5.html  \nhttp://mobileshosting.com/2016/2/shoes/6.html  \nhttp://mobileshosting.com/2016/2/shoes/7.html  \nhttp://mobileshosting.com/2016/2/shoes/8.html  \nhttp://mobileshosting.com/2016/2/shoes/9.html  \nhttp://mobileshosting.com/2016/2/shoes/10.html\r\n\r\nFormat                                   : Matroska\r\nFormat version                           : Version 4 / Version 2\r\nFile size                                : 693 MiB\r\nDuration                                 : 2h 12mn\r\nOverall bit rate                         : 729 Kbps\r\nMovie name                               : Krishnashtami 2016 Telugu Movies DVDScr XviD AAC New Source ☻rDX☻\r\n\r\nVideo\r\nID                                       : 1\r\nFormat                                   : AVC\r\nFormat/Info                              : Advanced Video Codec\r\nFormat profile                           :   \r\nFormat settings, CABAC                   : Yes\r\nFormat settings, ReFrames                : 5 frames\r\nCodec ID                                 : V_MPEG4/ISO/AVC\r\nDuration                                 : 2h 12mn\r\nBit rate                                 : 650 Kbps\r\nWidth                                    : 640 pixels\r\nHeight                                   : 272 pixels\r\nDisplay aspect ratio                     : 2.35:1\r\nFrame rate mode                          : Constant\r\nFrame rate                               : 25.000 fps\r\nColor space                              : YUV\r\nChroma subsampling                       : 4:2:0\r\nBit depth                                : 8 bits\r\nScan type                                : Progressive\r\nBits/(Pixel*Frame)                       : 0.149\r\nStream size                              : 618 MiB (89%)\r\nTitle                                    : ☻rDX☻\r\nLanguage                                 : Telugu\r\nDefault                                  : Yes\r\nForced                                   : No\r\n\r\nAudio\r\nID                                       : 2\r\nFormat                                   : MPEG Audio\r\nFormat version                           : Version 2\r\nFormat profile                           : Layer 3\r\nMode                                     : Joint stereo\r\nMode extension                           : MS Stereo\r\nCodec ID                                 : A_MPEG/L3\r\nCodec ID/Hint                            : MP3\r\nDuration                                 : 2h 12mn\r\nBit rate mode                            : Constant\r\nBit rate                                 : 64.0 Kbps\r\nChannel(s)                               : 2 channels\r\nSampling rate                            : 24.0 KHz\r\nCompression mode                         : Lossy\r\nDelay relative to video                  : 16ms\r\nStream size                              : 60.9 MiB (9%)\r\nTitle                                    : ☻rDX☻\r\nLanguage                                 : Telugu\r\nDefault                                  : Yes\r\nForced                                   : No\r\n\r\nIMDB                                     \r\nna","torrent":{"xt":"urn:btih:5d8561423041c7b8d58b0f13c4b0c8ffc1ec8d3c","amp;dn":"Krishnashtami+2016+Movies+DVDScr+XviD+AAC+New+%2BSample+%7E+%E2%98%BBrDX%E2%98%BB","amp;tr":["udp%3A%2F%2Ftracker.leechers-paradise.org%3A6969","udp%3A%2F%2Fzer0day.ch%3A1337","udp%3A%2F%2Fopen.demonii.com%3A1337","udp%3A%2F%2Ftracker.coppersurfer.tk%3A6969","udp%3A%2F%2Fexodus.desync.com%3A6969"],"infoHash":"5d8561423041c7b8d58b0f13c4b0c8ffc1ec8d3c","infoHashBuffer":{"type":"Buffer","data":[93,133,97,66,48,65,199,184,213,139,15,19,196,176,200,255,193,236,141,60]},"announce":[],"urlList":[]}}